<svg fill="none" height="80" viewBox="0 0 330 80" width="330" xmlns="http://www.w3.org/2000/svg">
  <path d="m30.0001 6c-16.5687 0-30.0001 13.4314-30.0001 30.0002 0 16.5685 13.4314 30.0001 30.0001 30.0001 14.865 0 27.2049-10.8116 29.5852-25.0002h-.2152c-2.2203 8.6262-10.0508 15.0001-19.3701 15.0001-11.0457 0-20.0001-8.9544-20.0001-20.0001s8.9544-20.0001 20.0001-20.0001c9.3193 0 17.1498 6.3738 19.3701 15h.2152c-2.3803-14.1886-14.7202-25.0001-29.5852-25.0001z" fill="#a4bcfd"/>
  <path d="m0 36.0002c0-16.5687 13.4314-30.0002 30.0001-30.0002 14.865 0 27.2049 10.8115 29.5852 25.0001h-20.2154c-2.2202-8.6262-10.0508-15-19.3701-15-11.0457 0-20.0001 8.9544-20.0001 20.0001z" fill="#3538cd"/>
  <path d="m0 36.0003c0 16.5685 13.4314 30 30.0001 30 14.865 0 27.2049-10.8115 29.5852-25.0001h-20.2154c-2.2202 8.6262-10.0508 15.0001-19.3701 15.0001-11.0457 0-20.0001-8.9544-20.0001-20.0001z" fill="#3538cd"/>
  <text x="78" y="50" fill="#0A0D12" font-family="Arial Black, Arial, sans-serif" font-size="28" font-weight="900" letter-spacing="-1">CourseConstruct</text>
</svg>
